<svg width="92" height="99" viewBox="0 0 92 99" fill="none" xmlns="http://www.w3.org/2000/svg">
<path d="M83.0967 94.7763V75.183H65.2902V94.7763H62.3224V29.4652H59.3546V94.7761H56.3868V75.1828H35.6128V94.7761H32.645V29.4652H29.6772V94.7761H26.7094V75.1828H8.90289V94.7761H0V98.0417H92V94.7761H83.0967V94.7763ZM20.7741 94.7763V84.9796H14.8387V94.7763H11.8709V81.7142H23.7418V94.7763H20.7741ZM50.4515 94.7763V81.7142H41.5483V94.7763H38.5805V78.4486H53.4192V94.7763H50.4515ZM77.1613 94.7763V84.9796H71.2259V94.7763H68.258V81.7142H80.1289V94.7763H77.1613Z" fill="white"/>
<path d="M41.5485 58.8555H50.4518V71.9175H41.5485V58.8555Z" fill="white"/>
<path d="M26.7098 35.9966H8.90332V52.3242H11.871V39.262H23.742V52.3242H26.7098V35.9966Z" fill="white"/>
<path d="M14.8386 42.5276H20.774V52.3242H14.8386V42.5276Z" fill="white"/>
<path d="M69.742 9.87219H72.7098C73.5274 9.87219 74.1938 9.13915 74.1938 8.23937V1.70826C74.1938 0.808682 73.5276 0.0754395 72.7098 0.0754395H69.742C68.9245 0.0754395 68.2581 0.808484 68.2581 1.70826V8.23937C68.2581 9.13895 68.9245 9.87219 69.742 9.87219Z" fill="white"/>
<path d="M19.2903 9.87219H22.258C23.0756 9.87219 23.7419 9.13915 23.7419 8.23937V1.70826C23.7419 0.808682 23.0757 0.0754395 22.258 0.0754395H19.2903C18.4727 0.0754395 17.8064 0.808484 17.8064 1.70826V8.23937C17.8065 9.13895 18.4727 9.87219 19.2903 9.87219Z" fill="white"/>
<path d="M26.7098 71.9175V55.5897H8.90332V71.9175H11.871V58.8554H23.742V71.9175H26.7098Z" fill="white"/>
<path d="M14.8386 62.1207H20.774V71.9175H14.8386V62.1207Z" fill="white"/>
<path d="M83.0967 71.9175V55.5897H65.2902V71.9175H68.258V58.8554H80.129V71.9175H83.0967Z" fill="white"/>
<path d="M71.2258 62.1207H77.1613V71.9175H71.2258V62.1207Z" fill="white"/>
<path d="M83.0967 35.9966H65.2902V52.3242H68.258V39.262H80.129V52.3242H83.0967V35.9966Z" fill="white"/>
<path d="M71.2258 42.5276H77.1613V52.3242H71.2258V42.5276Z" fill="white"/>
<path d="M62.6474 16.4034H29.3524L27.1266 26.1998H64.8733L62.6474 16.4034Z" fill="white"/>
<path d="M41.5485 35.9966H50.4518V49.0587H41.5485V35.9966Z" fill="white"/>
<path d="M56.3872 29.4652H35.6129V49.0587H38.5807V32.7309H53.4194V49.0587H56.3872V29.4652Z" fill="white"/>
<path d="M56.3872 71.9175V52.3242H35.6129V71.9175H38.5807V55.5897H53.4194V71.9175H56.3872Z" fill="white"/>
<path d="M26.7097 29.4653H23.325L27.0347 13.1376H64.9655L68.6752 29.4653H65.2905V32.731H87.182L81.9066 6.60657H77.1612V8.23938C77.1612 10.9399 75.1639 13.1376 72.7097 13.1376H69.7419C67.2876 13.1376 65.2903 10.9399 65.2903 8.23938V6.60657H26.7097V8.23938C26.7097 10.9399 24.7124 13.1376 22.2581 13.1376H19.2903C16.8361 13.1376 14.8388 10.9399 14.8388 8.23938V6.60657H10.0932L4.81799 32.731H26.7095V29.4653H26.7097Z" fill="white"/>
</svg>
