<svg width="228" height="232" viewBox="0 0 228 232" fill="none" xmlns="http://www.w3.org/2000/svg">
<path d="M224.361 209.659L175.117 157.791C185.615 141.607 191.77 122.034 191.77 100.994C191.77 45.3082 148.758 0 95.8813 0C43.0123 0 0 45.3121 0 100.994C0 156.675 43.0123 201.98 95.885 201.98C119.821 201.98 141.712 192.683 158.53 177.353L206.777 228.17C209.204 230.726 212.382 232 215.567 232C218.742 232 221.927 230.726 224.354 228.17C229.214 223.067 229.214 214.762 224.361 209.659ZM150 167.825C135.415 180.939 116.522 188.892 95.874 188.892C49.8596 188.892 12.4191 149.456 12.4191 100.994C12.4191 52.5237 49.8596 13.0952 95.874 13.0952C141.903 13.0952 179.34 52.5237 179.34 100.994C179.34 118.737 174.307 135.261 165.671 149.097C161.312 156.1 156.03 162.412 150 167.825Z" fill="#7579E7"/>
<path d="M143.253 86.2578L134.422 79.0964L132.028 77.1506V54.7976C132.028 51.6358 129.587 49.0723 126.589 49.0723C123.59 49.0723 121.156 51.6358 121.156 54.7976V68.3291L98.6054 50.0491C97.0072 48.7519 94.7858 48.7519 93.1876 50.0491L56.8394 79.521L47.9723 86.7095L37.6756 95.06C35.7328 96.6352 35.37 99.5731 36.8655 101.619C38.3611 103.661 41.1506 104.048 43.0934 102.472L47.9687 98.5191V148.244C47.9687 150.831 49.9591 152.919 52.4114 152.919H56.7148H138.817C141.273 152.919 143.264 150.831 143.264 148.244V98.0674L148.685 102.472C149.499 103.129 150.441 103.445 151.383 103.445C152.713 103.445 154.04 102.82 154.905 101.623C156.408 99.5731 156.049 96.639 154.103 95.06L143.253 86.2578Z" fill="#7579E7"/>
</svg>
