<svg width="96" height="91" viewBox="0 0 96 91" fill="none" xmlns="http://www.w3.org/2000/svg">
<path d="M94.125 93.8451H85.875V50.0248H94.125C94.7381 50.0248 95.3124 49.648 95.6631 49.0159C96.0137 48.3839 96.0964 47.5762 95.8843 46.8529L90.6082 28.8634C90.3366 27.937 89.6344 27.3219 88.8489 27.3219H79.0884C78.3032 27.3219 77.6008 27.937 77.3291 28.8634L74.7173 37.7699H19.875V4.77593H33.8438C34.8791 4.77593 35.7188 3.72059 35.7188 2.41921C35.7188 1.11784 34.8791 0.0625 33.8438 0.0625H18C16.9646 0.0625 16.125 1.11784 16.125 2.41921V35.861C14.6728 33.8196 12.5634 32.5317 10.2186 32.5317C5.84906 32.5317 2.29425 36.9998 2.29425 42.4921C2.29425 43.9049 2.52562 45.2725 2.97225 46.5331C1.08806 48.9205 0 52.1744 0 55.5834C0 61.8603 3.60188 67.0964 8.34356 68.2066V71.7066H1.875C0.839625 71.7066 0 72.7619 0 74.0633V105.643C0 106.945 0.839625 108 1.875 108H18.5621C19.1284 108 19.6346 107.683 19.9785 107.185C20.7928 107.705 21.7129 108 22.6871 108H73.3129C73.5713 108 73.8253 107.977 74.0752 107.937C74.2119 107.977 74.3537 108 74.4999 108H94.125C95.1604 108 96 106.945 96 105.643V96.2016C96 94.9002 95.1604 93.8451 94.125 93.8451ZM80.3957 32.0353H87.5417L91.4355 45.3114H84.0906C84.0604 45.3095 84.0306 45.3058 84 45.3058C83.9694 45.3058 83.9396 45.3098 83.9094 45.3114H76.5021L80.3957 32.0353ZM8.34338 55.2037V63.3643C5.68838 62.3514 3.75 59.2471 3.75 55.5834C3.75 52.9655 4.76494 50.4912 6.46481 48.9646C6.87544 48.596 7.1505 48.0346 7.22756 47.4077C7.30481 46.7806 7.17769 46.141 6.87488 45.6336C6.3315 44.7222 6.04406 43.6358 6.04406 42.4921C6.04406 39.599 7.91663 37.2451 10.2184 37.2451C12.5201 37.2451 14.3927 39.5987 14.3927 42.4921C14.3927 43.636 14.1054 44.7222 13.5619 45.6338C13.2593 46.1412 13.1321 46.7808 13.2094 47.4077C13.2864 48.0346 13.5615 48.5957 13.9721 48.9646C15.672 50.4912 16.6869 52.9655 16.6869 55.5834C16.6869 59.2471 14.7486 62.3514 12.0934 63.3643V55.2037C12.0934 53.9023 11.2537 52.847 10.2184 52.847C9.183 52.847 8.34338 53.9023 8.34338 55.2037ZM16.6871 103.287H3.75V76.42H16.6871V103.287ZM75.5629 100.459C75.5629 102.018 74.5536 103.287 73.3129 103.287H22.6871C21.4464 103.287 20.4371 102.018 20.4371 100.459V85.3755C20.4371 83.0365 21.9512 81.1335 23.8121 81.1335C25.6731 81.1335 27.1871 83.0365 27.1871 85.3755V92.917C27.1871 94.2184 28.0268 95.2737 29.0621 95.2737H66.9379C67.9733 95.2737 68.8129 94.2184 68.8129 92.917V85.3755C68.8129 83.0365 70.3269 81.1335 72.1879 81.1335C74.0488 81.1335 75.5629 83.0365 75.5629 85.3755V100.459ZM30.9272 84.9042H65.0728C65.0662 85.0605 65.0629 85.2174 65.0629 85.3755V90.5603H30.9371V85.3755C30.9371 85.2174 30.9336 85.0605 30.9272 84.9042ZM29.616 80.1908C28.6738 78.5295 27.2931 77.2885 25.6871 76.737V64.5547C25.6871 61.8709 27.4243 59.6876 29.5596 59.6876H66.6214C68.7566 59.6876 70.4936 61.8711 70.4936 64.5547V76.6781C68.8106 77.1959 67.3613 78.4673 66.384 80.1908H29.616ZM74.2438 76.8016V64.5545C74.2438 59.2716 70.8246 54.9739 66.6216 54.9739H29.5596C25.3566 54.9739 21.9371 59.2716 21.9371 64.5545V76.7368C21.4106 76.9175 20.9078 77.1709 20.4371 77.4904V74.0633C20.4371 72.7619 19.5975 71.7066 18.5621 71.7066H12.0936V68.2066C16.8353 67.0964 20.4371 61.8603 20.4371 55.5834C20.4371 52.1744 19.3491 48.9207 17.4649 46.5329C17.9113 45.2723 18.1427 43.9049 18.1427 42.4921C18.1427 42.4892 18.1425 42.4864 18.1425 42.4836H73.3346L72.0531 46.8532C71.841 47.5762 71.9237 48.3839 72.2743 49.0162C72.6249 49.6485 73.1994 50.0251 73.8124 50.0251H82.125V93.8453H79.3129V85.3755C79.3129 81.3357 77.1731 77.9135 74.2438 76.8016ZM92.25 103.287H78.8734C79.1557 102.413 79.3129 101.458 79.3129 100.459V98.5583H92.25V103.287Z" fill="white"/>
</svg>
