<svg width="387" height="215" viewBox="0 0 387 215" fill="none" xmlns="http://www.w3.org/2000/svg">
<rect x="1" y="1" width="385" height="133" fill="white" stroke="#C4C4C4" stroke-width="2"/>
<rect x="32" y="22" width="26.5517" height="25.3103" fill="white" stroke="black" stroke-width="2"/>
<rect x="46.4482" y="38.3103" width="26.5517" height="25.3103" fill="white" stroke="black" stroke-width="2"/>
<path d="M33.7793 101H24.4629V99.7012L29.3848 94.2324C30.1139 93.4056 30.6152 92.735 30.8887 92.2207C31.1686 91.6999 31.3086 91.1628 31.3086 90.6094C31.3086 89.8672 31.084 89.2585 30.6348 88.7832C30.1855 88.3079 29.5866 88.0703 28.8379 88.0703C27.9395 88.0703 27.2396 88.3275 26.7383 88.8418C26.2435 89.3496 25.9961 90.0592 25.9961 90.9707H24.1895C24.1895 89.6621 24.6094 88.6042 25.4492 87.7969C26.2956 86.9896 27.4251 86.5859 28.8379 86.5859C30.1595 86.5859 31.2044 86.9342 31.9727 87.6309C32.7409 88.321 33.125 89.2422 33.125 90.3945C33.125 91.7943 32.2331 93.4609 30.4492 95.3945L26.6406 99.5254H33.7793V101ZM45.9473 92.0547C45.6738 92.0091 45.3776 91.9863 45.0586 91.9863C43.8737 91.9863 43.0697 92.4909 42.6465 93.5V101H40.8398V90.4336H42.5977L42.627 91.6543C43.2194 90.7103 44.0592 90.2383 45.1465 90.2383C45.498 90.2383 45.765 90.2839 45.9473 90.375V92.0547ZM46.9434 95.6191C46.9434 94.584 47.1452 93.653 47.5488 92.8262C47.959 91.9993 48.5254 91.3613 49.248 90.9121C49.9772 90.4629 50.8073 90.2383 51.7383 90.2383C53.1771 90.2383 54.3392 90.7363 55.2246 91.7324C56.1165 92.7285 56.5625 94.0534 56.5625 95.707V95.834C56.5625 96.8626 56.3639 97.7871 55.9668 98.6074C55.5762 99.4212 55.013 100.056 54.2773 100.512C53.5482 100.967 52.7083 101.195 51.7578 101.195C50.3255 101.195 49.1634 100.697 48.2715 99.7012C47.3861 98.7051 46.9434 97.3867 46.9434 95.7461V95.6191ZM48.7598 95.834C48.7598 97.0059 49.0299 97.9466 49.5703 98.6562C50.1172 99.3659 50.8464 99.7207 51.7578 99.7207C52.6758 99.7207 53.4049 99.3626 53.9453 98.6465C54.4857 97.9238 54.7559 96.9147 54.7559 95.6191C54.7559 94.4603 54.4792 93.5228 53.9258 92.8066C53.3789 92.084 52.6497 91.7227 51.7383 91.7227C50.8464 91.7227 50.127 92.0775 49.5801 92.7871C49.0332 93.4967 48.7598 94.5124 48.7598 95.834ZM58.3496 95.6191C58.3496 94.584 58.5514 93.653 58.9551 92.8262C59.3652 91.9993 59.9316 91.3613 60.6543 90.9121C61.3835 90.4629 62.2135 90.2383 63.1445 90.2383C64.5833 90.2383 65.7454 90.7363 66.6309 91.7324C67.5228 92.7285 67.9688 94.0534 67.9688 95.707V95.834C67.9688 96.8626 67.7702 97.7871 67.373 98.6074C66.9824 99.4212 66.4193 100.056 65.6836 100.512C64.9544 100.967 64.1146 101.195 63.1641 101.195C61.7318 101.195 60.5697 100.697 59.6777 99.7012C58.7923 98.7051 58.3496 97.3867 58.3496 95.7461V95.6191ZM60.166 95.834C60.166 97.0059 60.4362 97.9466 60.9766 98.6562C61.5234 99.3659 62.2526 99.7207 63.1641 99.7207C64.082 99.7207 64.8112 99.3626 65.3516 98.6465C65.8919 97.9238 66.1621 96.9147 66.1621 95.6191C66.1621 94.4603 65.8854 93.5228 65.332 92.8066C64.7852 92.084 64.056 91.7227 63.1445 91.7227C62.2526 91.7227 61.5332 92.0775 60.9863 92.7871C60.4395 93.4967 60.166 94.5124 60.166 95.834ZM71.9336 90.4336L71.9824 91.6055C72.7572 90.694 73.8021 90.2383 75.1172 90.2383C76.5951 90.2383 77.6009 90.8047 78.1348 91.9375C78.4863 91.4297 78.9421 91.0195 79.502 90.707C80.0684 90.3945 80.7357 90.2383 81.5039 90.2383C83.8216 90.2383 85 91.4655 85.0391 93.9199V101H83.2324V94.0273C83.2324 93.2721 83.0599 92.709 82.7148 92.3379C82.3698 91.9603 81.7904 91.7715 80.9766 91.7715C80.306 91.7715 79.7493 91.9733 79.3066 92.377C78.8639 92.7741 78.6068 93.3112 78.5352 93.9883V101H76.7188V94.0762C76.7188 92.5397 75.9668 91.7715 74.4629 91.7715C73.278 91.7715 72.4674 92.276 72.0312 93.2852V101H70.2246V90.4336H71.9336ZM93.9258 98.1973C93.9258 97.709 93.7402 97.3314 93.3691 97.0645C93.0046 96.791 92.3633 96.5566 91.4453 96.3613C90.5339 96.166 89.8079 95.9316 89.2676 95.6582C88.7337 95.3848 88.3366 95.0592 88.0762 94.6816C87.8223 94.304 87.6953 93.8548 87.6953 93.334C87.6953 92.4681 88.0599 91.7357 88.7891 91.1367C89.5247 90.5378 90.4622 90.2383 91.6016 90.2383C92.7995 90.2383 93.7695 90.5475 94.5117 91.166C95.2604 91.7845 95.6348 92.5755 95.6348 93.5391H93.8184C93.8184 93.0443 93.6068 92.6178 93.1836 92.2598C92.7669 91.9017 92.2396 91.7227 91.6016 91.7227C90.944 91.7227 90.4297 91.8659 90.0586 92.1523C89.6875 92.4388 89.502 92.8132 89.502 93.2754C89.502 93.7116 89.6745 94.0404 90.0195 94.2617C90.3646 94.4831 90.9863 94.6947 91.8848 94.8965C92.7897 95.0983 93.5221 95.3392 94.082 95.6191C94.6419 95.8991 95.0553 96.2376 95.3223 96.6348C95.5957 97.0254 95.7324 97.5039 95.7324 98.0703C95.7324 99.0143 95.3548 99.7728 94.5996 100.346C93.8444 100.912 92.8646 101.195 91.6602 101.195C90.8138 101.195 90.0651 101.046 89.4141 100.746C88.763 100.447 88.252 100.03 87.8809 99.4961C87.5163 98.9557 87.334 98.373 87.334 97.748H89.1406C89.1732 98.3535 89.4141 98.8353 89.8633 99.1934C90.319 99.5449 90.918 99.7207 91.6602 99.7207C92.3438 99.7207 92.8906 99.584 93.3008 99.3105C93.7174 99.0306 93.9258 98.6595 93.9258 98.1973Z" fill="black"/>
<path d="M201.547 37.625H200.719V31.625C200.716 29.555 198.864 27.8774 196.578 27.875H168.422C166.136 27.8774 164.284 29.555 164.281 31.625V37.625H163.453C159.339 37.6295 156.005 40.649 156 44.375V54.875H157.656V60.125H161.797V54.875H203.203V60.125H207.344V54.875H209V44.375C208.995 40.649 205.661 37.6295 201.547 37.625ZM165.938 31.625C165.938 30.3823 167.05 29.375 168.422 29.375H196.578C197.95 29.375 199.062 30.3823 199.062 31.625V37.625H196.578V34.625C196.578 33.3823 195.466 32.375 194.094 32.375H186.641C185.269 32.375 184.156 33.3823 184.156 34.625V37.625H180.844V34.625C180.844 33.3823 179.731 32.375 178.359 32.375H170.906C169.534 32.375 168.422 33.3823 168.422 34.625V37.625H165.938V31.625ZM194.922 34.625V37.625H185.812V34.625C185.812 34.2108 186.183 33.875 186.641 33.875H194.094C194.551 33.875 194.922 34.2108 194.922 34.625ZM179.188 34.625V37.625H170.078V34.625C170.078 34.2108 170.449 33.875 170.906 33.875H178.359C178.817 33.875 179.188 34.2108 179.188 34.625ZM160.141 58.625H159.312V54.875H160.141V58.625ZM205.688 58.625H204.859V54.875H205.688V58.625ZM207.344 53.375H157.656V49.625H207.344V53.375ZM207.344 48.125H157.656V44.375C157.66 41.4769 160.253 39.1283 163.453 39.125H201.547C204.747 39.1283 207.34 41.4769 207.344 44.375V48.125Z" fill="black"/>
<path d="M163.461 101H161.645V88.959L158.002 90.2969V88.6562L163.178 86.7129H163.461V101ZM182.846 95.834C182.846 97.4486 182.475 98.7474 181.732 99.7305C180.99 100.707 179.994 101.195 178.744 101.195C177.41 101.195 176.378 100.723 175.648 99.7793L175.561 101H173.9V86H175.707V91.5957C176.436 90.6908 177.442 90.2383 178.725 90.2383C180.007 90.2383 181.013 90.7233 181.742 91.6934C182.478 92.6634 182.846 93.9915 182.846 95.6777V95.834ZM181.039 95.6289C181.039 94.3984 180.801 93.4479 180.326 92.7773C179.851 92.1068 179.167 91.7715 178.275 91.7715C177.084 91.7715 176.228 92.3249 175.707 93.4316V98.002C176.26 99.1087 177.123 99.6621 178.295 99.6621C179.161 99.6621 179.835 99.3268 180.316 98.6562C180.798 97.9857 181.039 96.9766 181.039 95.6289ZM189.516 101.195C188.083 101.195 186.918 100.727 186.02 99.7891C185.121 98.8451 184.672 97.5853 184.672 96.0098V95.6777C184.672 94.6296 184.87 93.6953 185.268 92.875C185.671 92.0482 186.231 91.4036 186.947 90.9414C187.67 90.4727 188.451 90.2383 189.291 90.2383C190.665 90.2383 191.732 90.6908 192.494 91.5957C193.256 92.5007 193.637 93.7962 193.637 95.4824V96.2344H186.479C186.505 97.276 186.807 98.1191 187.387 98.7637C187.973 99.4017 188.715 99.7207 189.613 99.7207C190.251 99.7207 190.792 99.5905 191.234 99.3301C191.677 99.0697 192.064 98.7246 192.396 98.2949L193.5 99.1543C192.615 100.515 191.286 101.195 189.516 101.195ZM189.291 91.7227C188.562 91.7227 187.95 91.9896 187.455 92.5234C186.96 93.0508 186.654 93.793 186.537 94.75H191.83V94.6133C191.778 93.6953 191.531 92.9857 191.088 92.4844C190.645 91.9766 190.046 91.7227 189.291 91.7227ZM195.297 95.6289C195.297 94.0078 195.681 92.7057 196.449 91.7227C197.217 90.7331 198.223 90.2383 199.467 90.2383C200.704 90.2383 201.684 90.6615 202.406 91.5078V86H204.213V101H202.553L202.465 99.8672C201.742 100.753 200.736 101.195 199.447 101.195C198.223 101.195 197.224 100.694 196.449 99.6914C195.681 98.6888 195.297 97.3802 195.297 95.7656V95.6289ZM197.104 95.834C197.104 97.0319 197.351 97.9694 197.846 98.6465C198.34 99.3236 199.024 99.6621 199.896 99.6621C201.042 99.6621 201.879 99.1478 202.406 98.1191V93.2656C201.866 92.2695 201.036 91.7715 199.916 91.7715C199.031 91.7715 198.34 92.1133 197.846 92.7969C197.351 93.4805 197.104 94.4928 197.104 95.834Z" fill="black"/>
<g clip-path="url(#clip0)">
<path d="M337.709 43.2916H337.609V30.7994C337.608 29.5269 336.946 28.3068 335.769 27.407C334.592 26.5071 332.997 26.0011 331.333 26H327.449C325.785 26.0014 324.19 26.5074 323.014 27.4071C321.837 28.3067 321.176 29.5265 321.174 30.7988V33.368H320.319C320.215 33.368 320.112 33.386 320.018 33.4204C319.924 33.4549 319.841 33.5051 319.775 33.5672L319.281 34.0395C318.196 35.0766 317.542 36.3384 317.403 37.6622C316.832 37.7002 316.301 37.9003 315.913 38.2231C315.526 38.5459 315.31 38.968 315.309 39.4062V40.4864C315.309 40.5564 315.327 40.6258 315.362 40.6905C315.397 40.7552 315.449 40.814 315.513 40.8635C315.578 40.913 315.655 40.9523 315.74 40.9791C315.824 41.0058 315.915 41.0196 316.006 41.0196H330.921C331.012 41.0196 331.103 41.0058 331.188 40.9791C331.272 40.9523 331.349 40.913 331.414 40.8635C331.479 40.814 331.53 40.7552 331.565 40.6905C331.6 40.6258 331.618 40.5564 331.618 40.4864V39.4062C331.617 38.968 331.402 38.5459 331.014 38.223C330.627 37.9002 330.095 37.7 329.524 37.6619C329.386 36.3384 328.733 35.0769 327.648 34.0398L327.154 33.5681C327.089 33.5059 327.006 33.4556 326.912 33.421C326.818 33.3865 326.715 33.3686 326.61 33.3686H325.755V30.7994C325.755 30.4558 325.933 30.1264 326.251 29.8834C326.569 29.6405 327 29.504 327.449 29.5039H331.334C331.783 29.5042 332.213 29.6408 332.531 29.8835C332.848 30.1263 333.027 30.4555 333.027 30.7988V43.291H311.823C311.823 43.2846 311.823 43.2779 311.823 43.2718C311.823 42.7162 311.604 42.1734 311.195 41.7145C310.785 41.2556 310.204 40.9019 309.527 40.6997C308.85 40.4976 308.11 40.4564 307.402 40.5815C306.694 40.7066 306.052 40.9923 305.559 41.401C304.983 41.1191 304.306 40.9823 303.623 41.0098C303.283 40.2763 302.654 39.6412 301.823 39.192C300.992 38.7428 300 38.5014 298.982 38.5011C297.964 38.5008 296.972 38.7416 296.14 39.1903C295.309 39.6391 294.68 40.2737 294.339 41.0071C293.534 41.0248 292.766 41.2677 292.179 41.6896C291.592 42.1116 291.229 42.6834 291.156 43.2968C290.574 43.3232 290.026 43.5185 289.626 43.843C289.225 44.1675 289.001 44.5967 289 45.043V45.957C289.001 46.4215 289.242 46.8669 289.672 47.1953C290.101 47.5238 290.684 47.7085 291.291 47.709H291.391V53.8027C291.392 55.262 291.925 56.6921 292.93 57.9326C293.935 59.1731 295.372 60.175 297.08 60.8258L296.353 62.1387C296.074 62.6415 296.069 63.2084 296.337 63.7145C296.605 64.2206 297.125 64.6246 297.783 64.8374C298.44 65.0503 299.181 65.0547 299.843 64.8497C300.505 64.6446 301.033 64.2469 301.312 63.7441L302.471 61.6484H326.529L327.689 63.7438C327.973 64.2403 328.502 64.6312 329.16 64.8316C329.819 65.032 330.554 65.0258 331.207 64.8144C331.859 64.6029 332.376 64.2032 332.646 63.7021C332.916 63.2009 332.916 62.6386 332.647 62.1372L331.92 60.8258C333.628 60.175 335.065 59.1732 336.07 57.9329C337.074 56.6925 337.608 55.2625 337.609 53.8033V47.7096H337.709C338.317 47.7091 338.899 47.5243 339.329 47.1957C339.758 46.8671 340 46.4216 340 45.957V45.043C339.999 44.5786 339.757 44.1334 339.328 43.8051C338.899 43.4768 338.316 43.2921 337.709 43.2916ZM330.224 39.4062V39.9547H316.704V39.4062C316.704 39.2245 316.799 39.0503 316.967 38.9218C317.135 38.7932 317.363 38.7209 317.6 38.7207H329.327C329.565 38.7209 329.793 38.7932 329.961 38.9218C330.129 39.0503 330.223 39.2245 330.224 39.4062ZM326.558 34.7067C327.444 35.5522 327.989 36.5764 328.127 37.6546H318.803C318.94 36.5767 319.485 35.5526 320.37 34.7071L320.655 34.435H326.273L326.558 34.7067ZM331.333 28.4375H327.449C326.631 28.4382 325.846 28.6872 325.267 29.1299C324.688 29.5726 324.362 30.1728 324.361 30.7988V33.368H322.568V30.7994C322.57 29.8098 323.084 28.8609 323.999 28.161C324.914 27.4611 326.155 27.0675 327.449 27.0664H331.334C332.628 27.0675 333.869 27.461 334.784 28.1608C335.699 28.8605 336.213 29.8093 336.215 30.7988V43.291H334.422V30.7988C334.421 30.1726 334.095 29.5723 333.516 29.1296C332.937 28.6869 332.152 28.438 331.333 28.4375ZM294.429 42.0726C294.533 42.0733 294.637 42.0805 294.739 42.0942C294.915 42.1164 295.096 42.0861 295.243 42.0096C295.391 41.933 295.495 41.8161 295.533 41.6829C295.707 41.0795 296.147 40.54 296.778 40.1546C297.41 39.7692 298.196 39.5612 299.004 39.5652C299.812 39.5692 300.594 39.7851 301.219 40.1768C301.844 40.5684 302.274 41.1122 302.438 41.7173C302.457 41.7885 302.495 41.8559 302.55 41.9155C302.604 41.975 302.674 42.0254 302.755 42.0635C302.836 42.1017 302.926 42.1268 303.02 42.1373C303.114 42.1478 303.21 42.1435 303.302 42.1247C303.632 42.0521 303.983 42.0518 304.314 42.1238C304.645 42.1959 304.943 42.3374 305.174 42.5323C305.249 42.5935 305.341 42.6405 305.444 42.6694C305.546 42.6983 305.656 42.7083 305.765 42.6986C305.873 42.6889 305.978 42.6598 306.069 42.6137C306.16 42.5676 306.236 42.5057 306.29 42.433C306.532 42.1081 306.907 41.8535 307.358 41.709C307.809 41.5644 308.31 41.538 308.782 41.6338C309.255 41.7296 309.673 41.9423 309.971 42.2387C310.269 42.5351 310.43 42.8986 310.43 43.2724V43.2916H292.56C292.631 42.9518 292.859 42.6426 293.201 42.4192C293.543 42.1958 293.979 42.073 294.429 42.0726ZM300.027 63.3282C299.927 63.5078 299.761 63.6609 299.548 63.7685C299.336 63.8761 299.086 63.9333 298.831 63.933C298.617 63.9332 298.406 63.8927 298.217 63.8153C298.028 63.7378 297.867 63.6258 297.749 63.4892C297.631 63.3526 297.558 63.1956 297.539 63.0324C297.519 62.8692 297.552 62.7048 297.636 62.554L298.366 61.2371C298.399 61.2459 298.434 61.2523 298.468 61.2609C298.601 61.2944 298.736 61.3252 298.872 61.3544C298.931 61.3669 298.988 61.3806 299.047 61.3925C299.233 61.43 299.422 61.4638 299.613 61.493C299.668 61.5016 299.723 61.508 299.778 61.5159C299.921 61.536 300.065 61.5546 300.21 61.5701C300.28 61.5777 300.351 61.5845 300.422 61.5909C300.56 61.6036 300.7 61.6138 300.84 61.6213C300.882 61.6241 300.924 61.6286 300.965 61.6308L300.027 63.3282ZM330.634 61.2371L331.363 62.554C331.447 62.7048 331.48 62.8692 331.461 63.0324C331.441 63.1956 331.369 63.3526 331.25 63.4892C331.132 63.6258 330.971 63.7378 330.782 63.8153C330.593 63.8927 330.382 63.9332 330.168 63.933C329.913 63.9332 329.663 63.876 329.451 63.7684C329.238 63.6608 329.072 63.5077 328.972 63.3282L328.033 61.6317C328.075 61.6295 328.116 61.625 328.157 61.6225C328.299 61.614 328.44 61.6033 328.58 61.5905C328.649 61.5841 328.717 61.5778 328.786 61.5704C328.934 61.5546 329.081 61.5357 329.227 61.515C329.28 61.5074 329.332 61.5016 329.384 61.4934C329.575 61.4639 329.764 61.4303 329.951 61.3925C330.01 61.3806 330.069 61.3669 330.127 61.3544C330.263 61.3252 330.397 61.294 330.531 61.2609C330.565 61.2523 330.6 61.2459 330.634 61.2371ZM336.215 53.8027C336.213 55.151 335.686 56.4683 334.701 57.5867C333.716 58.7051 332.318 59.5739 330.685 60.0823C330.446 60.1573 330.2 60.2252 329.953 60.2834C329.925 60.2898 329.896 60.2953 329.869 60.3017C329.617 60.3587 329.363 60.4084 329.106 60.4477C329.082 60.4516 329.059 60.4541 329.035 60.4577C328.77 60.4967 328.503 60.5278 328.234 60.5491C328.223 60.5491 328.211 60.5491 328.2 60.551C327.919 60.5714 327.635 60.5814 327.35 60.5814H301.65C301.369 60.5814 301.09 60.5701 300.814 60.551L300.762 60.5479C300.497 60.5278 300.235 60.497 299.975 60.4586C299.947 60.4547 299.919 60.4516 299.892 60.4474C299.637 60.4081 299.385 60.359 299.135 60.3023C299.105 60.2956 299.076 60.2898 299.047 60.2831C298.8 60.2249 298.556 60.1573 298.315 60.0823C296.682 59.5739 295.284 58.7052 294.299 57.587C293.315 56.4687 292.787 55.1516 292.785 53.8033V47.7096H336.215V53.8027ZM338.605 45.957C338.605 46.1388 338.511 46.313 338.343 46.4415C338.174 46.57 337.947 46.6423 337.709 46.6426H291.291C291.053 46.6423 290.826 46.57 290.657 46.4415C290.489 46.313 290.395 46.1388 290.395 45.957V45.043C290.395 44.8612 290.489 44.687 290.657 44.5585C290.826 44.43 291.053 44.3577 291.291 44.3574H337.709C337.947 44.3577 338.174 44.43 338.343 44.5585C338.511 44.687 338.605 44.8612 338.605 45.043V45.957Z" fill="black"/>
</g>
<path d="M296.189 101H294.373V88.959L290.73 90.2969V88.6562L295.906 86.7129H296.189V101ZM315.574 95.834C315.574 97.4486 315.203 98.7474 314.461 99.7305C313.719 100.707 312.723 101.195 311.473 101.195C310.138 101.195 309.106 100.723 308.377 99.7793L308.289 101H306.629V86H308.436V91.5957C309.165 90.6908 310.171 90.2383 311.453 90.2383C312.736 90.2383 313.742 90.7233 314.471 91.6934C315.206 92.6634 315.574 93.9915 315.574 95.6777V95.834ZM313.768 95.6289C313.768 94.3984 313.53 93.4479 313.055 92.7773C312.579 92.1068 311.896 91.7715 311.004 91.7715C309.812 91.7715 308.956 92.3249 308.436 93.4316V98.002C308.989 99.1087 309.852 99.6621 311.023 99.6621C311.889 99.6621 312.563 99.3268 313.045 98.6562C313.527 97.9857 313.768 96.9766 313.768 95.6289ZM324.383 101C324.279 100.792 324.194 100.421 324.129 99.8867C323.289 100.759 322.286 101.195 321.121 101.195C320.079 101.195 319.223 100.902 318.553 100.316C317.889 99.724 317.557 98.9753 317.557 98.0703C317.557 96.9701 317.973 96.1172 318.807 95.5117C319.646 94.8997 320.825 94.5938 322.342 94.5938H324.1V93.7637C324.1 93.1322 323.911 92.6309 323.533 92.2598C323.156 91.8822 322.599 91.6934 321.863 91.6934C321.219 91.6934 320.678 91.8561 320.242 92.1816C319.806 92.5072 319.588 92.901 319.588 93.3633H317.771C317.771 92.8359 317.957 92.3281 318.328 91.8398C318.706 91.3451 319.214 90.9544 319.852 90.668C320.496 90.3815 321.202 90.2383 321.971 90.2383C323.188 90.2383 324.142 90.5443 324.832 91.1562C325.522 91.7617 325.88 92.5983 325.906 93.666V98.5293C325.906 99.4993 326.03 100.271 326.277 100.844V101H324.383ZM321.385 99.623C321.951 99.623 322.488 99.4766 322.996 99.1836C323.504 98.8906 323.872 98.5098 324.1 98.041V95.873H322.684C320.47 95.873 319.363 96.5208 319.363 97.8164C319.363 98.3828 319.552 98.8255 319.93 99.1445C320.307 99.4635 320.792 99.623 321.385 99.623ZM331.189 87.875V90.4336H333.162V91.8301H331.189V98.3828C331.189 98.806 331.277 99.125 331.453 99.3398C331.629 99.5482 331.928 99.6523 332.352 99.6523C332.56 99.6523 332.846 99.6133 333.211 99.5352V101C332.736 101.13 332.273 101.195 331.824 101.195C331.017 101.195 330.408 100.951 329.998 100.463C329.588 99.9746 329.383 99.2812 329.383 98.3828V91.8301H327.459V90.4336H329.383V87.875H331.189ZM337.088 91.7129C337.889 90.7298 338.93 90.2383 340.213 90.2383C342.446 90.2383 343.572 91.498 343.592 94.0176V101H341.785V94.0078C341.779 93.2461 341.603 92.6829 341.258 92.3184C340.919 91.9538 340.389 91.7715 339.666 91.7715C339.08 91.7715 338.566 91.9277 338.123 92.2402C337.68 92.5527 337.335 92.9629 337.088 93.4707V101H335.281V86H337.088V91.7129Z" fill="black"/>
<path d="M1 136H386V200C386 207.732 379.732 214 372 214H15C7.26802 214 1 207.732 1 200V136Z" fill="white" stroke="#C4C4C4" stroke-width="2"/>
<ellipse cx="151.216" cy="176" rx="30.2156" ry="26" fill="#C4C4C4" fill-opacity="0.41"/>
<g clip-path="url(#clip1)">
<path d="M165.777 188.368L157.844 180.746C159.921 178.542 161.198 175.628 161.198 172.421C161.197 165.561 155.409 160 148.269 160C141.129 160 135.341 165.561 135.341 172.421C135.341 179.281 141.129 184.842 148.269 184.842C151.354 184.842 154.183 183.8 156.406 182.068L164.37 189.72C164.758 190.093 165.388 190.093 165.776 189.72C166.165 189.347 166.165 188.741 165.777 188.368ZM148.269 182.931C142.227 182.931 137.33 178.226 137.33 172.421C137.33 166.617 142.227 161.911 148.269 161.911C154.31 161.911 159.208 166.617 159.208 172.421C159.208 178.226 154.31 182.931 148.269 182.931Z" fill="black"/>
</g>
<path d="M261.376 168.103C260.988 167.667 260.457 167.383 259.878 167.303V167.302L250.842 166.054L247.266 157.509C246.744 156.259 245.307 155.668 244.056 156.19C243.46 156.439 242.986 156.913 242.737 157.509L239.161 166.054L230.125 167.302C228.779 167.489 227.84 168.733 228.027 170.079C228.108 170.657 228.391 171.188 228.827 171.577L235.635 177.648L234.237 187.175C234.085 188.142 234.529 189.106 235.363 189.619C236.186 190.145 237.243 190.125 238.045 189.569L245.002 184.838L251.958 189.574C253.08 190.336 254.608 190.043 255.37 188.921C255.716 188.411 255.858 187.789 255.767 187.179L254.368 177.649L261.176 171.578C262.191 170.674 262.281 169.118 261.376 168.103ZM252.263 176.277C251.958 176.549 251.811 176.956 251.87 177.36L253.327 187.559L245.688 182.365C245.276 182.085 244.735 182.085 244.323 182.365L236.638 187.528L238.133 177.355C238.191 176.953 238.044 176.548 237.741 176.277L230.455 169.711L240.179 168.369C240.605 168.31 240.967 168.031 241.133 167.634L245.016 158.428C245.021 158.434 245.024 158.44 245.026 158.447L248.869 167.63C249.035 168.026 249.398 168.305 249.823 168.364L259.559 169.765L252.263 176.277Z" fill="black"/>
<defs>
<clipPath id="clip0">
<rect width="51" height="39" fill="white" transform="translate(289 26)"/>
</clipPath>
<clipPath id="clip1">
<rect width="30.7278" height="30" fill="white" transform="translate(135.34 160)"/>
</clipPath>
</defs>
</svg>
