<svg width="322" height="86" viewBox="0 0 322 86" fill="none" xmlns="http://www.w3.org/2000/svg">
<rect x="9" y="2" width="26.5517" height="25.3103" fill="white" stroke="black" stroke-width="2"/>
<rect x="23.4482" y="18.3103" width="26.5517" height="25.3103" fill="white" stroke="black" stroke-width="2"/>
<path d="M10.7793 81H1.46289V79.7012L6.38477 74.2324C7.11393 73.4056 7.61523 72.735 7.88867 72.2207C8.16862 71.6999 8.30859 71.1628 8.30859 70.6094C8.30859 69.8672 8.08398 69.2585 7.63477 68.7832C7.18555 68.3079 6.58659 68.0703 5.83789 68.0703C4.93945 68.0703 4.23958 68.3275 3.73828 68.8418C3.24349 69.3496 2.99609 70.0592 2.99609 70.9707H1.18945C1.18945 69.6621 1.60938 68.6042 2.44922 67.7969C3.29557 66.9896 4.42513 66.5859 5.83789 66.5859C7.15951 66.5859 8.20443 66.9342 8.97266 67.6309C9.74089 68.321 10.125 69.2422 10.125 70.3945C10.125 71.7943 9.23307 73.4609 7.44922 75.3945L3.64062 79.5254H10.7793V81ZM22.9473 72.0547C22.6738 72.0091 22.3776 71.9863 22.0586 71.9863C20.8737 71.9863 20.0697 72.4909 19.6465 73.5V81H17.8398V70.4336H19.5977L19.627 71.6543C20.2194 70.7103 21.0592 70.2383 22.1465 70.2383C22.498 70.2383 22.765 70.2839 22.9473 70.375V72.0547ZM23.9434 75.6191C23.9434 74.584 24.1452 73.653 24.5488 72.8262C24.959 71.9993 25.5254 71.3613 26.248 70.9121C26.9772 70.4629 27.8073 70.2383 28.7383 70.2383C30.1771 70.2383 31.3392 70.7363 32.2246 71.7324C33.1165 72.7285 33.5625 74.0534 33.5625 75.707V75.834C33.5625 76.8626 33.3639 77.7871 32.9668 78.6074C32.5762 79.4212 32.013 80.056 31.2773 80.5117C30.5482 80.9674 29.7083 81.1953 28.7578 81.1953C27.3255 81.1953 26.1634 80.6973 25.2715 79.7012C24.3861 78.7051 23.9434 77.3867 23.9434 75.7461V75.6191ZM25.7598 75.834C25.7598 77.0059 26.0299 77.9466 26.5703 78.6562C27.1172 79.3659 27.8464 79.7207 28.7578 79.7207C29.6758 79.7207 30.4049 79.3626 30.9453 78.6465C31.4857 77.9238 31.7559 76.9147 31.7559 75.6191C31.7559 74.4603 31.4792 73.5228 30.9258 72.8066C30.3789 72.084 29.6497 71.7227 28.7383 71.7227C27.8464 71.7227 27.127 72.0775 26.5801 72.7871C26.0332 73.4967 25.7598 74.5124 25.7598 75.834ZM35.3496 75.6191C35.3496 74.584 35.5514 73.653 35.9551 72.8262C36.3652 71.9993 36.9316 71.3613 37.6543 70.9121C38.3835 70.4629 39.2135 70.2383 40.1445 70.2383C41.5833 70.2383 42.7454 70.7363 43.6309 71.7324C44.5228 72.7285 44.9688 74.0534 44.9688 75.707V75.834C44.9688 76.8626 44.7702 77.7871 44.373 78.6074C43.9824 79.4212 43.4193 80.056 42.6836 80.5117C41.9544 80.9674 41.1146 81.1953 40.1641 81.1953C38.7318 81.1953 37.5697 80.6973 36.6777 79.7012C35.7923 78.7051 35.3496 77.3867 35.3496 75.7461V75.6191ZM37.166 75.834C37.166 77.0059 37.4362 77.9466 37.9766 78.6562C38.5234 79.3659 39.2526 79.7207 40.1641 79.7207C41.082 79.7207 41.8112 79.3626 42.3516 78.6465C42.8919 77.9238 43.1621 76.9147 43.1621 75.6191C43.1621 74.4603 42.8854 73.5228 42.332 72.8066C41.7852 72.084 41.056 71.7227 40.1445 71.7227C39.2526 71.7227 38.5332 72.0775 37.9863 72.7871C37.4395 73.4967 37.166 74.5124 37.166 75.834ZM48.9336 70.4336L48.9824 71.6055C49.7572 70.694 50.8021 70.2383 52.1172 70.2383C53.5951 70.2383 54.6009 70.8047 55.1348 71.9375C55.4863 71.4297 55.9421 71.0195 56.502 70.707C57.0684 70.3945 57.7357 70.2383 58.5039 70.2383C60.8216 70.2383 62 71.4655 62.0391 73.9199V81H60.2324V74.0273C60.2324 73.2721 60.0599 72.709 59.7148 72.3379C59.3698 71.9603 58.7904 71.7715 57.9766 71.7715C57.306 71.7715 56.7493 71.9733 56.3066 72.377C55.8639 72.7741 55.6068 73.3112 55.5352 73.9883V81H53.7188V74.0762C53.7188 72.5397 52.9668 71.7715 51.4629 71.7715C50.278 71.7715 49.4674 72.276 49.0312 73.2852V81H47.2246V70.4336H48.9336ZM70.9258 78.1973C70.9258 77.709 70.7402 77.3314 70.3691 77.0645C70.0046 76.791 69.3633 76.5566 68.4453 76.3613C67.5339 76.166 66.8079 75.9316 66.2676 75.6582C65.7337 75.3848 65.3366 75.0592 65.0762 74.6816C64.8223 74.304 64.6953 73.8548 64.6953 73.334C64.6953 72.4681 65.0599 71.7357 65.7891 71.1367C66.5247 70.5378 67.4622 70.2383 68.6016 70.2383C69.7995 70.2383 70.7695 70.5475 71.5117 71.166C72.2604 71.7845 72.6348 72.5755 72.6348 73.5391H70.8184C70.8184 73.0443 70.6068 72.6178 70.1836 72.2598C69.7669 71.9017 69.2396 71.7227 68.6016 71.7227C67.944 71.7227 67.4297 71.8659 67.0586 72.1523C66.6875 72.4388 66.502 72.8132 66.502 73.2754C66.502 73.7116 66.6745 74.0404 67.0195 74.2617C67.3646 74.4831 67.9863 74.6947 68.8848 74.8965C69.7897 75.0983 70.5221 75.3392 71.082 75.6191C71.6419 75.8991 72.0553 76.2376 72.3223 76.6348C72.5957 77.0254 72.7324 77.5039 72.7324 78.0703C72.7324 79.0143 72.3548 79.7728 71.5996 80.3457C70.8444 80.9121 69.8646 81.1953 68.6602 81.1953C67.8138 81.1953 67.0651 81.0456 66.4141 80.7461C65.763 80.4466 65.252 80.0299 64.8809 79.4961C64.5163 78.9557 64.334 78.373 64.334 77.748H66.1406C66.1732 78.3535 66.4141 78.8353 66.8633 79.1934C67.319 79.5449 67.918 79.7207 68.6602 79.7207C69.3438 79.7207 69.8906 79.584 70.3008 79.3105C70.7174 79.0306 70.9258 78.6595 70.9258 78.1973Z" fill="black"/>
<path d="M178.547 17.625H177.719V11.625C177.716 9.555 175.864 7.87744 173.578 7.875H145.422C143.136 7.87744 141.284 9.555 141.281 11.625V17.625H140.453C136.339 17.6295 133.005 20.649 133 24.375V34.875H134.656V40.125H138.797V34.875H180.203V40.125H184.344V34.875H186V24.375C185.995 20.649 182.661 17.6295 178.547 17.625ZM142.938 11.625C142.938 10.3823 144.05 9.375 145.422 9.375H173.578C174.95 9.375 176.062 10.3823 176.062 11.625V17.625H173.578V14.625C173.578 13.3823 172.466 12.375 171.094 12.375H163.641C162.269 12.375 161.156 13.3823 161.156 14.625V17.625H157.844V14.625C157.844 13.3823 156.731 12.375 155.359 12.375H147.906C146.534 12.375 145.422 13.3823 145.422 14.625V17.625H142.938V11.625ZM171.922 14.625V17.625H162.812V14.625C162.812 14.2108 163.183 13.875 163.641 13.875H171.094C171.551 13.875 171.922 14.2108 171.922 14.625ZM156.188 14.625V17.625H147.078V14.625C147.078 14.2108 147.449 13.875 147.906 13.875H155.359C155.817 13.875 156.188 14.2108 156.188 14.625ZM137.141 38.625H136.312V34.875H137.141V38.625ZM182.688 38.625H181.859V34.875H182.688V38.625ZM184.344 33.375H134.656V29.625H184.344V33.375ZM184.344 28.125H134.656V24.375C134.66 21.4769 137.253 19.1283 140.453 19.125H178.547C181.747 19.1283 184.34 21.4769 184.344 24.375V28.125Z" fill="black"/>
<path d="M140.461 81H138.645V68.959L135.002 70.2969V68.6562L140.178 66.7129H140.461V81ZM159.846 75.834C159.846 77.4486 159.475 78.7474 158.732 79.7305C157.99 80.707 156.994 81.1953 155.744 81.1953C154.41 81.1953 153.378 80.7233 152.648 79.7793L152.561 81H150.9V66H152.707V71.5957C153.436 70.6908 154.442 70.2383 155.725 70.2383C157.007 70.2383 158.013 70.7233 158.742 71.6934C159.478 72.6634 159.846 73.9915 159.846 75.6777V75.834ZM158.039 75.6289C158.039 74.3984 157.801 73.4479 157.326 72.7773C156.851 72.1068 156.167 71.7715 155.275 71.7715C154.084 71.7715 153.228 72.3249 152.707 73.4316V78.002C153.26 79.1087 154.123 79.6621 155.295 79.6621C156.161 79.6621 156.835 79.3268 157.316 78.6562C157.798 77.9857 158.039 76.9766 158.039 75.6289ZM166.516 81.1953C165.083 81.1953 163.918 80.7266 163.02 79.7891C162.121 78.8451 161.672 77.5853 161.672 76.0098V75.6777C161.672 74.6296 161.87 73.6953 162.268 72.875C162.671 72.0482 163.231 71.4036 163.947 70.9414C164.67 70.4727 165.451 70.2383 166.291 70.2383C167.665 70.2383 168.732 70.6908 169.494 71.5957C170.256 72.5007 170.637 73.7962 170.637 75.4824V76.2344H163.479C163.505 77.276 163.807 78.1191 164.387 78.7637C164.973 79.4017 165.715 79.7207 166.613 79.7207C167.251 79.7207 167.792 79.5905 168.234 79.3301C168.677 79.0697 169.064 78.7246 169.396 78.2949L170.5 79.1543C169.615 80.515 168.286 81.1953 166.516 81.1953ZM166.291 71.7227C165.562 71.7227 164.95 71.9896 164.455 72.5234C163.96 73.0508 163.654 73.793 163.537 74.75H168.83V74.6133C168.778 73.6953 168.531 72.9857 168.088 72.4844C167.645 71.9766 167.046 71.7227 166.291 71.7227ZM172.297 75.6289C172.297 74.0078 172.681 72.7057 173.449 71.7227C174.217 70.7331 175.223 70.2383 176.467 70.2383C177.704 70.2383 178.684 70.6615 179.406 71.5078V66H181.213V81H179.553L179.465 79.8672C178.742 80.7526 177.736 81.1953 176.447 81.1953C175.223 81.1953 174.224 80.694 173.449 79.6914C172.681 78.6888 172.297 77.3802 172.297 75.7656V75.6289ZM174.104 75.834C174.104 77.0319 174.351 77.9694 174.846 78.6465C175.34 79.3236 176.024 79.6621 176.896 79.6621C178.042 79.6621 178.879 79.1478 179.406 78.1191V73.2656C178.866 72.2695 178.036 71.7715 176.916 71.7715C176.031 71.7715 175.34 72.1133 174.846 72.7969C174.351 73.4805 174.104 74.4928 174.104 75.834Z" fill="black"/>
<g clip-path="url(#clip0)">
<path d="M314.709 23.2916H314.609V10.7994C314.608 9.52687 313.946 8.30677 312.769 7.40695C311.592 6.50714 309.997 6.00113 308.333 6H304.449C302.785 6.00137 301.19 6.5074 300.014 7.40706C298.837 8.30672 298.176 9.52652 298.174 10.7988V13.368H297.319C297.215 13.368 297.112 13.386 297.018 13.4204C296.924 13.4549 296.841 13.5051 296.775 13.5672L296.281 14.0395C295.196 15.0766 294.542 16.3384 294.403 17.6622C293.832 17.7002 293.301 17.9003 292.913 18.2231C292.526 18.5459 292.31 18.968 292.309 19.4062V20.4864C292.309 20.5564 292.327 20.6258 292.362 20.6905C292.397 20.7552 292.449 20.814 292.513 20.8635C292.578 20.913 292.655 20.9523 292.74 20.9791C292.824 21.0058 292.915 21.0196 293.006 21.0196H307.921C308.012 21.0196 308.103 21.0058 308.188 20.9791C308.272 20.9523 308.349 20.913 308.414 20.8635C308.479 20.814 308.53 20.7552 308.565 20.6905C308.6 20.6258 308.618 20.5564 308.618 20.4864V19.4062C308.617 18.968 308.402 18.5459 308.014 18.223C307.627 17.9002 307.095 17.7 306.524 17.6619C306.386 16.3384 305.733 15.0769 304.648 14.0398L304.154 13.5681C304.089 13.5059 304.006 13.4556 303.912 13.421C303.818 13.3865 303.715 13.3686 303.61 13.3686H302.755V10.7994C302.755 10.4558 302.933 10.1264 303.251 9.88343C303.569 9.6405 304 9.50399 304.449 9.50391H308.334C308.783 9.50423 309.213 9.64076 309.531 9.88354C309.848 10.1263 310.027 10.4555 310.027 10.7988V23.291H288.823C288.823 23.2846 288.823 23.2779 288.823 23.2718C288.823 22.7162 288.604 22.1734 288.195 21.7145C287.785 21.2556 287.204 20.9019 286.527 20.6997C285.85 20.4976 285.11 20.4564 284.402 20.5815C283.694 20.7066 283.052 20.9923 282.559 21.401C281.983 21.1191 281.306 20.9823 280.623 21.0098C280.283 20.2763 279.654 19.6412 278.823 19.192C277.992 18.7428 277 18.5014 275.982 18.5011C274.964 18.5008 273.972 18.7416 273.14 19.1903C272.309 19.6391 271.68 20.2737 271.339 21.0071C270.534 21.0248 269.766 21.2677 269.179 21.6896C268.592 22.1116 268.229 22.6834 268.156 23.2968C267.574 23.3232 267.026 23.5185 266.626 23.843C266.225 24.1675 266.001 24.5967 266 25.043V25.957C266.001 26.4215 266.242 26.8669 266.672 27.1953C267.101 27.5238 267.684 27.7085 268.291 27.709H268.391V33.8027C268.392 35.262 268.925 36.6921 269.93 37.9326C270.935 39.1731 272.372 40.175 274.08 40.8258L273.353 42.1387C273.074 42.6415 273.069 43.2084 273.337 43.7145C273.605 44.2206 274.125 44.6246 274.783 44.8374C275.44 45.0503 276.181 45.0547 276.843 44.8497C277.505 44.6446 278.033 44.2469 278.312 43.7441L279.471 41.6484H303.529L304.689 43.7438C304.973 44.2403 305.502 44.6312 306.16 44.8316C306.819 45.032 307.554 45.0258 308.207 44.8144C308.859 44.6029 309.376 44.2032 309.646 43.7021C309.916 43.2009 309.916 42.6386 309.647 42.1372L308.92 40.8258C310.628 40.175 312.065 39.1732 313.07 37.9329C314.074 36.6925 314.608 35.2625 314.609 33.8033V27.7096H314.709C315.317 27.7091 315.899 27.5243 316.329 27.1957C316.758 26.8671 317 26.4216 317 25.957V25.043C316.999 24.5786 316.757 24.1334 316.328 23.8051C315.899 23.4768 315.316 23.2921 314.709 23.2916ZM307.224 19.4062V19.9547H293.704V19.4062C293.704 19.2245 293.799 19.0503 293.967 18.9218C294.135 18.7932 294.363 18.7209 294.6 18.7207H306.327C306.565 18.7209 306.793 18.7932 306.961 18.9218C307.129 19.0503 307.223 19.2245 307.224 19.4062ZM303.558 14.7067C304.444 15.5522 304.989 16.5764 305.127 17.6546H295.803C295.94 16.5767 296.485 15.5526 297.37 14.7071L297.655 14.435H303.273L303.558 14.7067ZM308.333 8.4375H304.449C303.631 8.43823 302.846 8.68724 302.267 9.12992C301.688 9.5726 301.362 10.1728 301.361 10.7988V13.368H299.568V10.7994C299.57 9.80975 300.084 8.86085 300.999 8.16098C301.914 7.46111 303.155 7.06746 304.449 7.06641H308.334C309.628 7.06745 310.869 7.46103 311.784 8.16077C312.699 8.8605 313.213 9.80925 313.215 10.7988V23.291H311.422V10.7988C311.421 10.1726 311.095 9.5723 310.516 9.1296C309.937 8.68689 309.152 8.43798 308.333 8.4375ZM271.429 22.0726C271.533 22.0733 271.637 22.0805 271.739 22.0942C271.915 22.1164 272.096 22.0861 272.243 22.0096C272.391 21.933 272.495 21.8161 272.533 21.6829C272.707 21.0795 273.147 20.54 273.778 20.1546C274.41 19.7692 275.196 19.5612 276.004 19.5652C276.812 19.5692 277.594 19.7851 278.219 20.1768C278.844 20.5684 279.274 21.1122 279.438 21.7173C279.457 21.7885 279.495 21.8559 279.55 21.9155C279.604 21.975 279.674 22.0254 279.755 22.0635C279.836 22.1017 279.926 22.1268 280.02 22.1373C280.114 22.1478 280.21 22.1435 280.302 22.1247C280.632 22.0521 280.983 22.0518 281.314 22.1238C281.645 22.1959 281.943 22.3374 282.174 22.5323C282.249 22.5935 282.341 22.6405 282.444 22.6694C282.546 22.6983 282.656 22.7083 282.765 22.6986C282.873 22.6889 282.978 22.6598 283.069 22.6137C283.16 22.5676 283.236 22.5057 283.29 22.433C283.532 22.1081 283.907 21.8535 284.358 21.709C284.809 21.5644 285.31 21.538 285.782 21.6338C286.255 21.7296 286.673 21.9423 286.971 22.2387C287.269 22.5351 287.43 22.8986 287.43 23.2724V23.2916H269.56C269.631 22.9518 269.859 22.6426 270.201 22.4192C270.543 22.1958 270.979 22.073 271.429 22.0726ZM277.027 43.3282C276.927 43.5078 276.761 43.6609 276.548 43.7685C276.336 43.8761 276.086 43.9333 275.831 43.933C275.617 43.9332 275.406 43.8927 275.217 43.8153C275.028 43.7378 274.867 43.6258 274.749 43.4892C274.631 43.3526 274.558 43.1956 274.539 43.0324C274.519 42.8692 274.552 42.7048 274.636 42.554L275.366 41.2371C275.399 41.2459 275.434 41.2523 275.468 41.2609C275.601 41.2944 275.736 41.3252 275.872 41.3544C275.931 41.3669 275.988 41.3806 276.047 41.3925C276.233 41.43 276.422 41.4638 276.613 41.493C276.668 41.5016 276.723 41.508 276.778 41.5159C276.921 41.536 277.065 41.5546 277.21 41.5701C277.28 41.5777 277.351 41.5845 277.422 41.5909C277.56 41.6036 277.7 41.6138 277.84 41.6213C277.882 41.6241 277.924 41.6286 277.965 41.6308L277.027 43.3282ZM307.634 41.2371L308.363 42.554C308.447 42.7048 308.48 42.8692 308.461 43.0324C308.441 43.1956 308.369 43.3526 308.25 43.4892C308.132 43.6258 307.971 43.7378 307.782 43.8153C307.593 43.8927 307.382 43.9332 307.168 43.933C306.913 43.9332 306.663 43.876 306.451 43.7684C306.238 43.6608 306.072 43.5077 305.972 43.3282L305.033 41.6317C305.075 41.6295 305.116 41.625 305.157 41.6225C305.299 41.614 305.44 41.6033 305.58 41.5905C305.649 41.5841 305.717 41.5778 305.786 41.5704C305.934 41.5546 306.081 41.5357 306.227 41.515C306.28 41.5074 306.332 41.5016 306.384 41.4934C306.575 41.4639 306.764 41.4303 306.951 41.3925C307.01 41.3806 307.069 41.3669 307.127 41.3544C307.263 41.3252 307.397 41.294 307.531 41.2609C307.565 41.2523 307.6 41.2459 307.634 41.2371ZM313.215 33.8027C313.213 35.151 312.686 36.4683 311.701 37.5867C310.716 38.7051 309.318 39.5739 307.685 40.0823C307.446 40.1573 307.2 40.2252 306.953 40.2834C306.925 40.2898 306.896 40.2953 306.869 40.3017C306.617 40.3587 306.363 40.4084 306.106 40.4477C306.082 40.4516 306.059 40.4541 306.035 40.4577C305.77 40.4967 305.503 40.5278 305.234 40.5491C305.223 40.5491 305.211 40.5491 305.2 40.551C304.919 40.5714 304.635 40.5814 304.35 40.5814H278.65C278.369 40.5814 278.09 40.5701 277.814 40.551L277.762 40.5479C277.497 40.5278 277.235 40.497 276.975 40.4586C276.947 40.4547 276.919 40.4516 276.892 40.4474C276.637 40.4081 276.385 40.359 276.135 40.3023C276.105 40.2956 276.076 40.2898 276.047 40.2831C275.8 40.2249 275.556 40.1573 275.315 40.0823C273.682 39.5739 272.284 38.7052 271.299 37.587C270.315 36.4687 269.787 35.1516 269.785 33.8033V27.7096H313.215V33.8027ZM315.605 25.957C315.605 26.1388 315.511 26.313 315.343 26.4415C315.174 26.57 314.947 26.6423 314.709 26.6426H268.291C268.053 26.6423 267.826 26.57 267.657 26.4415C267.489 26.313 267.395 26.1388 267.395 25.957V25.043C267.395 24.8612 267.489 24.687 267.657 24.5585C267.826 24.43 268.053 24.3577 268.291 24.3574H314.709C314.947 24.3577 315.174 24.43 315.343 24.5585C315.511 24.687 315.605 24.8612 315.605 25.043V25.957Z" fill="black"/>
</g>
<path d="M273.189 81H271.373V68.959L267.73 70.2969V68.6562L272.906 66.7129H273.189V81ZM292.574 75.834C292.574 77.4486 292.203 78.7474 291.461 79.7305C290.719 80.707 289.723 81.1953 288.473 81.1953C287.138 81.1953 286.106 80.7233 285.377 79.7793L285.289 81H283.629V66H285.436V71.5957C286.165 70.6908 287.171 70.2383 288.453 70.2383C289.736 70.2383 290.742 70.7233 291.471 71.6934C292.206 72.6634 292.574 73.9915 292.574 75.6777V75.834ZM290.768 75.6289C290.768 74.3984 290.53 73.4479 290.055 72.7773C289.579 72.1068 288.896 71.7715 288.004 71.7715C286.812 71.7715 285.956 72.3249 285.436 73.4316V78.002C285.989 79.1087 286.852 79.6621 288.023 79.6621C288.889 79.6621 289.563 79.3268 290.045 78.6562C290.527 77.9857 290.768 76.9766 290.768 75.6289ZM301.383 81C301.279 80.7917 301.194 80.4206 301.129 79.8867C300.289 80.7591 299.286 81.1953 298.121 81.1953C297.079 81.1953 296.223 80.9023 295.553 80.3164C294.889 79.724 294.557 78.9753 294.557 78.0703C294.557 76.9701 294.973 76.1172 295.807 75.5117C296.646 74.8997 297.825 74.5938 299.342 74.5938H301.1V73.7637C301.1 73.1322 300.911 72.6309 300.533 72.2598C300.156 71.8822 299.599 71.6934 298.863 71.6934C298.219 71.6934 297.678 71.8561 297.242 72.1816C296.806 72.5072 296.588 72.901 296.588 73.3633H294.771C294.771 72.8359 294.957 72.3281 295.328 71.8398C295.706 71.3451 296.214 70.9544 296.852 70.668C297.496 70.3815 298.202 70.2383 298.971 70.2383C300.188 70.2383 301.142 70.5443 301.832 71.1562C302.522 71.7617 302.88 72.5983 302.906 73.666V78.5293C302.906 79.4993 303.03 80.2708 303.277 80.8438V81H301.383ZM298.385 79.623C298.951 79.623 299.488 79.4766 299.996 79.1836C300.504 78.8906 300.872 78.5098 301.1 78.041V75.873H299.684C297.47 75.873 296.363 76.5208 296.363 77.8164C296.363 78.3828 296.552 78.8255 296.93 79.1445C297.307 79.4635 297.792 79.623 298.385 79.623ZM308.189 67.875V70.4336H310.162V71.8301H308.189V78.3828C308.189 78.806 308.277 79.125 308.453 79.3398C308.629 79.5482 308.928 79.6523 309.352 79.6523C309.56 79.6523 309.846 79.6133 310.211 79.5352V81C309.736 81.1302 309.273 81.1953 308.824 81.1953C308.017 81.1953 307.408 80.9512 306.998 80.4629C306.588 79.9746 306.383 79.2812 306.383 78.3828V71.8301H304.459V70.4336H306.383V67.875H308.189ZM314.088 71.7129C314.889 70.7298 315.93 70.2383 317.213 70.2383C319.446 70.2383 320.572 71.498 320.592 74.0176V81H318.785V74.0078C318.779 73.2461 318.603 72.6829 318.258 72.3184C317.919 71.9538 317.389 71.7715 316.666 71.7715C316.08 71.7715 315.566 71.9277 315.123 72.2402C314.68 72.5527 314.335 72.9629 314.088 73.4707V81H312.281V66H314.088V71.7129Z" fill="black"/>
<defs>
<clipPath id="clip0">
<rect width="51" height="39" fill="white" transform="translate(266 6)"/>
</clipPath>
</defs>
</svg>
