<svg width="101" height="113" viewBox="0 0 101 113" fill="none" xmlns="http://www.w3.org/2000/svg">
<path d="M50.5001 41.153L14.479 74.3769C14.479 74.4238 14.4684 74.4928 14.4474 74.5868C14.4267 74.6801 14.4158 74.7479 14.4158 74.796V108.439C14.4158 109.653 14.8127 110.706 15.6064 111.593C16.3998 112.48 17.3394 112.926 18.4253 112.926H42.4806V86.0109H58.5198V112.927H82.575C83.6607 112.927 84.6015 112.481 85.3939 111.593C86.1875 110.707 86.5858 109.654 86.5858 108.439V74.796C86.5858 74.6094 86.563 74.4685 86.5226 74.3769L50.5001 41.153Z" fill="white" fill-opacity="0.92"/>
<path d="M100.303 66.8069L86.5845 54.0505V25.4537C86.5845 24.8 86.3967 24.2623 86.0197 23.8416C85.6458 23.4213 85.1653 23.2111 84.5796 23.2111H72.5517C71.9667 23.2111 71.4864 23.4213 71.1101 23.8416C70.7347 24.2623 70.5471 24.8002 70.5471 25.4537V39.1211L55.2616 24.8223C53.9266 23.6074 52.3393 23 50.5014 23C48.6638 23 47.0767 23.6074 45.7404 24.8223L0.696132 66.8069C0.27857 67.18 0.0497119 67.6823 0.00714386 68.3132C-0.0352048 68.9437 0.110712 69.4943 0.445332 69.9612L4.32934 75.148C4.66396 75.5683 5.10193 75.8253 5.645 75.9194C6.14638 75.9665 6.64777 75.8025 7.14915 75.4289L50.5001 34.9857L93.8516 75.4286C94.1864 75.7546 94.6241 75.9174 95.1672 75.9174H95.3555C95.8977 75.8251 96.3348 75.5663 96.6711 75.147L100.556 69.961C100.89 69.4931 101.036 68.9434 100.992 68.3123C100.95 67.6831 100.72 67.1808 100.303 66.8069Z" fill="white" fill-opacity="0.92"/>
</svg>
