<svg id="Layer_2" data-name="Layer 2" xmlns="http://www.w3.org/2000/svg" viewBox="0 0 1080 1080"><defs><style>.cls-1{fill:#545554;}.cls-2{fill:#3086b2;}.cls-3{fill:#231f20;}</style></defs><title>House Hunt Symbol Main</title><polygon class="cls-1" points="540.02 539.97 539.98 828 456.89 779.97 456.89 684 373.76 636 373.76 732 290.64 684 290.57 396.03 373.73 444.03 373.73 539.97 456.89 588 456.89 492 540.02 539.97"/><polygon class="cls-2" points="456.86 395.97 456.86 396 373.73 444.03 290.57 396.03 373.73 348.03 456.86 395.97"/><polygon class="cls-2" points="623.11 492 540.02 539.97 456.89 492 539.98 444.03 623.11 492"/><polygon class="cls-2" points="789.43 396 706.24 444.03 623.11 396.03 706.24 348 789.43 396"/><polygon class="cls-2" points="623.11 300 539.98 348 456.86 300 539.98 252 623.11 300"/><polygon class="cls-1" points="623.11 684 706.24 732 706.24 636 623.11 684"/><polygon class="cls-2" points="706.24 540 623.11 588 623.11 492 706.24 540"/><polygon class="cls-1" points="539.98 348 539.98 444.03 456.89 396 456.86 300 539.98 348"/><polygon class="cls-3" points="456.89 396 456.86 396 456.86 300 456.89 396"/><polygon class="cls-1" points="706.24 444.03 706.24 540 623.11 492 623.11 396.03 706.24 444.03"/></svg>