<svg id="Layer_2" data-name="Layer 2" xmlns="http://www.w3.org/2000/svg" viewBox="0 0 1349.29 354.87"><defs><style>.cls-1{font-size:161.69px;font-family:Montserrat-Regular, Montserrat;letter-spacing:-0.1em;}.cls-1,.cls-7{fill:#3086b2;}.cls-2{fill:#231f20;}.cls-3,.cls-4,.cls-5,.cls-6{fill:#545554;}.cls-3,.cls-4,.cls-5{font-family:Montserrat-Light, Montserrat;font-weight:300;}.cls-3{letter-spacing:-0.14em;}.cls-4{letter-spacing:-0.13em;}</style></defs><title>House Hunt Logo Main</title><text class="cls-1" transform="translate(359.48 225.05)">HOUSE<tspan class="cls-2" x="512.4" y="0"> </tspan><tspan class="cls-3" x="540.53" y="0">HU</tspan><tspan class="cls-4" x="753.58" y="0">N</tspan><tspan class="cls-5" x="864.19" y="0">T</tspan></text><polygon class="cls-6" points="169.97 177.41 169.95 332.98 125.07 307.04 125.07 255.21 80.17 229.28 80.17 281.13 35.28 255.21 35.24 99.68 80.16 125.6 80.16 177.41 125.07 203.36 125.07 151.51 169.97 177.41"/><polygon class="cls-7" points="125.05 99.64 125.05 99.66 80.16 125.6 35.24 99.68 80.16 73.75 125.05 99.64"/><polygon class="cls-7" points="214.85 151.51 169.97 177.41 125.07 151.51 169.95 125.6 214.85 151.51"/><polygon class="cls-7" points="304.68 99.66 259.74 125.6 214.85 99.68 259.74 73.73 304.68 99.66"/><polygon class="cls-7" points="214.85 47.81 169.95 73.73 125.05 47.81 169.95 21.89 214.85 47.81"/><polygon class="cls-6" points="214.85 255.21 259.75 281.13 259.75 229.28 214.85 255.21"/><polygon class="cls-7" points="259.74 177.43 214.85 203.36 214.85 151.51 259.74 177.43"/><polygon class="cls-6" points="169.95 73.73 169.95 125.6 125.07 99.66 125.05 47.81 169.95 73.73"/><polygon class="cls-2" points="125.07 99.66 125.05 99.66 125.05 47.81 125.07 99.66"/><polygon class="cls-6" points="259.74 125.6 259.74 177.43 214.85 151.51 214.85 99.68 259.74 125.6"/></svg>