<svg width="96" height="96" viewBox="0 0 96 96" fill="none" xmlns="http://www.w3.org/2000/svg">
<g clip-path="url(#clip0)">
<path d="M78.0001 5.0625H49.8752C48.8399 5.0625 48.0002 5.90213 48.0002 6.9375C48.0002 7.97288 48.8399 8.8125 49.8752 8.8125H76.1251V21.1251C76.1251 22.1604 76.9647 23.0001 78.0001 23.0001C79.0354 23.0001 79.875 22.1604 79.875 21.1251V6.9375C79.875 5.90213 79.0354 5.0625 78.0001 5.0625Z" fill="white"/>
<path d="M43.7004 5.61188C43.3519 5.26294 42.8681 5.0625 42.375 5.0625C41.8819 5.0625 41.3981 5.26294 41.0494 5.61188C40.7006 5.96081 40.5 6.44438 40.5 6.9375C40.5 7.43062 40.7004 7.91438 41.0494 8.26294C41.3981 8.61188 41.8819 8.8125 42.375 8.8125C42.8681 8.8125 43.3519 8.61188 43.7004 8.26294C44.0494 7.91438 44.25 7.43062 44.25 6.9375C44.25 6.44438 44.0494 5.96063 43.7004 5.61188Z" fill="white"/>
<path d="M70.5 12.5625H25.5C24.4646 12.5625 23.625 13.4021 23.625 14.4375V29.4375C23.625 30.4729 24.4646 31.3125 25.5 31.3125H70.5C71.5354 31.3125 72.375 30.4729 72.375 29.4375V14.4375C72.375 13.4021 71.5354 12.5625 70.5 12.5625ZM68.625 27.5625H27.375V16.3125H68.625V27.5625Z" fill="white"/>
<path d="M94.125 98.8451H85.875V55.0248H94.125C94.7381 55.0248 95.3124 54.648 95.6631 54.0159C96.0137 53.3839 96.0964 52.5762 95.8843 51.8529L90.6082 33.8634C90.3366 32.937 89.6344 32.3219 88.8489 32.3219H79.0884C78.3032 32.3219 77.6008 32.937 77.3291 33.8634L74.7173 42.7699H19.875V9.77593H33.8438C34.8791 9.77593 35.7188 8.72059 35.7188 7.41921C35.7188 6.11784 34.8791 5.0625 33.8438 5.0625H18C16.9646 5.0625 16.125 6.11784 16.125 7.41921V40.861C14.6728 38.8196 12.5634 37.5317 10.2186 37.5317C5.84906 37.5317 2.29425 41.9998 2.29425 47.4921C2.29425 48.9049 2.52562 50.2725 2.97225 51.5331C1.08806 53.9205 0 57.1744 0 60.5834C0 66.8603 3.60188 72.0964 8.34356 73.2066V76.7066H1.875C0.839625 76.7066 0 77.7619 0 79.0633V110.643C0 111.945 0.839625 113 1.875 113H18.5621C19.1284 113 19.6346 112.683 19.9785 112.185C20.7928 112.705 21.7129 113 22.6871 113H73.3129C73.5713 113 73.8253 112.977 74.0752 112.937C74.2119 112.977 74.3537 113 74.4999 113H94.125C95.1604 113 96 111.945 96 110.643V101.202C96 99.9002 95.1604 98.8451 94.125 98.8451ZM80.3957 37.0353H87.5417L91.4355 50.3114H84.0906C84.0604 50.3095 84.0306 50.3058 84 50.3058C83.9694 50.3058 83.9396 50.3098 83.9094 50.3114H76.5021L80.3957 37.0353ZM8.34338 60.2037V68.3643C5.68838 67.3514 3.75 64.2471 3.75 60.5834C3.75 57.9655 4.76494 55.4912 6.46481 53.9646C6.87544 53.596 7.1505 53.0346 7.22756 52.4077C7.30481 51.7806 7.17769 51.141 6.87488 50.6336C6.3315 49.7222 6.04406 48.6358 6.04406 47.4921C6.04406 44.599 7.91663 42.2451 10.2184 42.2451C12.5201 42.2451 14.3927 44.5987 14.3927 47.4921C14.3927 48.636 14.1054 49.7222 13.5619 50.6338C13.2593 51.1412 13.1321 51.7808 13.2094 52.4077C13.2864 53.0346 13.5615 53.5957 13.9721 53.9646C15.672 55.4912 16.6869 57.9655 16.6869 60.5834C16.6869 64.2471 14.7486 67.3514 12.0934 68.3643V60.2037C12.0934 58.9023 11.2537 57.847 10.2184 57.847C9.183 57.847 8.34338 58.9023 8.34338 60.2037ZM16.6871 108.287H3.75V81.42H16.6871V108.287ZM75.5629 105.459C75.5629 107.018 74.5536 108.287 73.3129 108.287H22.6871C21.4464 108.287 20.4371 107.018 20.4371 105.459V90.3755C20.4371 88.0365 21.9512 86.1335 23.8121 86.1335C25.6731 86.1335 27.1871 88.0365 27.1871 90.3755V97.917C27.1871 99.2184 28.0268 100.274 29.0621 100.274H66.9379C67.9733 100.274 68.8129 99.2184 68.8129 97.917V90.3755C68.8129 88.0365 70.3269 86.1335 72.1879 86.1335C74.0488 86.1335 75.5629 88.0365 75.5629 90.3755V105.459ZM30.9272 89.9042H65.0728C65.0662 90.0605 65.0629 90.2174 65.0629 90.3755V95.5603H30.9371V90.3755C30.9371 90.2174 30.9336 90.0605 30.9272 89.9042ZM29.616 85.1908C28.6738 83.5295 27.2931 82.2885 25.6871 81.737V69.5547C25.6871 66.8709 27.4243 64.6876 29.5596 64.6876H66.6214C68.7566 64.6876 70.4936 66.8711 70.4936 69.5547V81.6781C68.8106 82.1959 67.3613 83.4673 66.384 85.1908H29.616ZM74.2438 81.8016V69.5545C74.2438 64.2716 70.8246 59.9739 66.6216 59.9739H29.5596C25.3566 59.9739 21.9371 64.2716 21.9371 69.5545V81.7368C21.4106 81.9175 20.9078 82.1709 20.4371 82.4904V79.0633C20.4371 77.7619 19.5975 76.7066 18.5621 76.7066H12.0936V73.2066C16.8353 72.0964 20.4371 66.8603 20.4371 60.5834C20.4371 57.1744 19.3491 53.9207 17.4649 51.5329C17.9113 50.2723 18.1427 48.9049 18.1427 47.4921C18.1427 47.4892 18.1425 47.4864 18.1425 47.4836H73.3346L72.0531 51.8532C71.841 52.5762 71.9237 53.3839 72.2743 54.0162C72.6249 54.6485 73.1994 55.0251 73.8124 55.0251H82.125V98.8453H79.3129V90.3755C79.3129 86.3357 77.1731 82.9135 74.2438 81.8016ZM92.25 108.287H78.8734C79.1557 107.413 79.3129 106.458 79.3129 105.459V103.558H92.25V108.287Z" fill="white"/>
<path d="M55.324 56.25H46.824C45.7887 56.25 44.949 57.0896 44.949 58.125C44.949 59.1604 45.7887 60 46.824 60H55.324C56.3594 60 57.199 59.1604 57.199 58.125C57.199 57.0896 56.3594 56.25 55.324 56.25Z" fill="white"/>
<path d="M41.5763 56.7994C41.2275 56.4504 40.7438 56.25 40.2488 56.25C39.7557 56.25 39.2738 56.4504 38.9232 56.7994C38.5744 57.1481 38.3738 57.6319 38.3738 58.125C38.3738 58.6181 38.5742 59.1019 38.9232 59.4504C39.2738 59.7992 39.7557 60 40.2488 60C40.7438 60 41.2275 59.7994 41.5763 59.4504C41.9248 59.1019 42.1238 58.6181 42.1238 58.125C42.1238 57.6319 41.9248 57.1481 41.5763 56.7994Z" fill="white"/>
</g>
<defs>
<clipPath id="clip0">
<rect width="96" height="96" fill="white"/>
</clipPath>
</defs>
</svg>
