<svg id="_x31_px" enable-background="new 0 0 24 24" height="512" viewBox="0 0 24 24" width="512" xmlns="http://www.w3.org/2000/svg"><g><path d="m17 22c-2.757 0-5-2.243-5-5s2.243-5 5-5 5 2.243 5 5-2.243 5-5 5zm0-9c-2.206 0-4 1.794-4 4s1.794 4 4 4 4-1.794 4-4-1.794-4-4-4z"/></g><g><path d="m23.5 24c-.128 0-.256-.049-.354-.146l-3.068-3.068c-.195-.195-.195-.512 0-.707s.512-.195.707 0l3.068 3.068c.195.195.195.512 0 .707-.097.097-.225.146-.353.146z"/></g><g><path d="m9.5 20h-4.5c-1.103 0-2-.897-2-2v-7h-2c-.561 0-1-.439-1-1 0-.281.122-.559.326-.742l9.834-9.125c.191-.178.488-.178.68 0l3.16 2.931v-1.564c0-.276.224-.5.5-.5h3c.276 0 .5.224.5.5v5.272l2.681 2.491c.197.178.319.456.319.737 0 .23-.075.447-.217.628-.171.218-.485.255-.702.085s-.255-.484-.085-.702c.004-.004.004-.006.004-.011l-2.841-2.644c-.101-.094-.159-.227-.159-.366v-4.99h-2v2.21c0 .199-.118.379-.3.458-.183.08-.396.043-.54-.092l-3.66-3.394-9.5 8.815 2.5.003c.276 0 .5.224.5.5v7.5c0 .551.448 1 1 1h4.5c.276 0 .5.224.5.5s-.224.5-.5.5z"/></g></svg>