<?xml version="1.0" encoding="iso-8859-1"?>
<!-- Generator: Adobe Illustrator 19.0.0, SVG Export Plug-In . SVG Version: 6.00 Build 0)  -->
<svg version="1.1" id="Layer_1" xmlns="http://www.w3.org/2000/svg" xmlns:xlink="http://www.w3.org/1999/xlink" x="0px" y="0px"
	 viewBox="0 0 512.004 512.004" style="enable-background:new 0 0 512.004 512.004;" xml:space="preserve">
<g>
	<g>
		<path d="M457.907,430.08c-1.612-2.149-4.141-3.413-6.827-3.413h-14.165c12.214-45.33,11.207-93.208-2.901-137.984V256
			c0-22.016-42.667-32.768-85.333-34.133V102.4C348.681,52.907,317.278,0,229.214,0s-128,51.2-128,102.4v324.267h-8.533
			c-4.713,0-8.533,3.82-8.533,8.533v25.6h-25.6c-4.017-0.117-7.571,2.584-8.533,6.485l-8.533,34.133
			c-1.133,4.575,1.657,9.202,6.231,10.335c0.753,0.186,1.527,0.269,2.302,0.247h119.467c4.711,0.138,8.642-3.569,8.78-8.279
			c0.023-0.775-0.06-1.549-0.247-2.302l-8.533-34.133c-0.963-3.901-4.517-6.602-8.533-6.485h-25.6v-25.6
			c0-4.713-3.82-8.533-8.533-8.533h-8.533V102.4c0-51.2,44.544-85.333,110.933-85.333c64.085,0,102.4,31.915,102.4,85.333v119.467
			c-42.667,1.28-85.333,12.032-85.333,34.133v32.683c-14.108,44.776-15.115,92.654-2.901,137.984h-14.165
			c-2.686,0-5.215,1.265-6.827,3.413c-17.103,23.375-17.103,55.132,0,78.507c1.612,2.149,4.141,3.413,6.827,3.413h25.6
			c4.713,0,8.533-3.82,8.533-8.533v-13.397c18.176,9.131,48.128,13.397,76.8,13.397c28.672,0,58.624-4.267,76.8-13.397v13.397
			c0,4.713,3.82,8.533,8.533,8.533h25.6c2.686,0,5.215-1.265,6.827-3.413C475.065,485.23,475.065,453.437,457.907,430.08z
			 M126.814,477.867h27.477l4.267,17.067H60.937l4.267-17.067h27.477c4.713,0,8.533-3.82,8.533-8.533v-25.6h17.067v25.6
			C118.281,474.046,122.101,477.867,126.814,477.867z M246.281,494.933h-12.544c-9.65-15.703-9.65-35.497,0-51.2h12.544V494.933z
			 M331.614,238.933v8.533c0,4.713,3.821,8.533,8.533,8.533s8.533-3.82,8.533-8.533v-8.533c43.861,1.28,66.645,12.373,68.267,17.067
			c-1.707,4.864-27.307,17.067-76.8,17.067c-49.493,0-75.435-12.373-76.8-17.067C264.627,251.648,287.411,240.384,331.614,238.933z
			 M263.347,276.736c18.176,9.131,48.128,13.397,76.8,13.397c28.672,0,58.624-4.267,76.8-13.397v13.397
			c-1.365,4.779-26.965,17.067-76.8,17.067c-49.835,0-75.52-12.459-76.8-17.067V276.736z M416.947,469.333
			c-1.365,4.693-26.965,17.067-76.8,17.067c-49.92,0-75.52-12.459-76.8-17.067v-14.08c16.043,9.387,41.728,14.08,76.8,14.08
			c35.072,0,60.757-4.693,76.8-14.08V469.333z M417.545,431.872c-4.267,7.851-20.053,20.395-77.397,20.395
			c-57.344,0-73.131-12.544-77.483-20.395c-12.613-40.098-14.059-82.875-4.181-123.733c17.323,11.008,50.347,16.128,81.664,16.128
			s64.341-5.12,81.579-16.128C431.604,348.997,430.158,391.774,417.545,431.872z M446.473,494.933h-12.459v-51.2h12.629
			C456.28,459.457,456.214,479.274,446.473,494.933z"/>
	</g>
</g>
<g>
</g>
<g>
</g>
<g>
</g>
<g>
</g>
<g>
</g>
<g>
</g>
<g>
</g>
<g>
</g>
<g>
</g>
<g>
</g>
<g>
</g>
<g>
</g>
<g>
</g>
<g>
</g>
<g>
</g>
</svg>
