<svg width="496" height="496" viewBox="0 0 496 496" fill="none" xmlns="http://www.w3.org/2000/svg">
<path d="M493.656 242.344L253.656 2.344C252.156 0.844232 250.121 0.00170898 248 0.00170898C245.879 0.00170898 243.844 0.844232 242.344 2.344L2.344 242.344C1.22553 243.463 0.463877 244.888 0.155337 246.44C-0.153204 247.991 0.00522059 249.6 0.610581 251.061C1.21594 252.523 2.24106 253.772 3.55634 254.651C4.87162 255.53 6.418 256 8 256H48V448H40C37.8783 448 35.8434 448.843 34.3432 450.343C32.8429 451.843 32 453.878 32 456V488C32 490.122 32.8429 492.157 34.3432 493.657C35.8434 495.157 37.8783 496 40 496H456C458.122 496 460.157 495.157 461.657 493.657C463.157 492.157 464 490.122 464 488V456C464 453.878 463.157 451.843 461.657 450.343C460.157 448.843 458.122 448 456 448H448V256H488C489.582 256 491.128 255.53 492.444 254.651C493.759 253.772 494.784 252.523 495.389 251.061C495.995 249.6 496.153 247.991 495.845 246.44C495.536 244.888 494.774 243.463 493.656 242.344V242.344ZM448 480H48V464H448V480ZM208 448H112V304H208V448ZM224 448V296C224 293.878 223.157 291.843 221.657 290.343C220.157 288.843 218.122 288 216 288H104C101.878 288 99.8434 288.843 98.3432 290.343C96.8429 291.843 96 293.878 96 296V448H64V251.312L248 67.312L432 251.312V448H224ZM443.312 240L253.656 50.344C252.156 48.8442 250.121 48.0017 248 48.0017C245.879 48.0017 243.844 48.8442 242.344 50.344L52.688 240H27.312L248 19.312L468.688 240H443.312Z" fill="#7579E7"/>
</svg>
